<svg width="270" height="58" viewBox="0 0 270 58" fill="none" xmlns="http://www.w3.org/2000/svg">
<g clip-path="url(#clip0_52_80)">
<path fill-rule="evenodd" clip-rule="evenodd" d="M26.2326 18.167H16.6678L14.8023 36.6567H24.2871L26.2326 18.167ZM29.3937 18.167L27.4481 36.6567H38.9029L38.661 39.4255H27.2028L25.2573 57.5128H22.0955L24.041 39.4255H14.4812L12.6174 57.5128H9.45553L11.4002 39.4255H0.0272217L0.268303 36.6567H11.6413L13.5868 18.167H2.13289L2.37397 15.3956H13.8329L15.3713 0.405853H18.5323L16.9898 15.3956H26.4737L28.0121 0.405853H31.1731L29.6356 15.3956H41.0945L40.8476 18.167H29.3937Z" fill="#EC0003"/>
<path fill-rule="evenodd" clip-rule="evenodd" d="M56.7817 8.63441V49.3639H61.8082C64.6472 49.3639 66.3457 47.8998 66.3457 43.8262V14.1738C66.3457 10.101 64.6472 8.63441 61.8082 8.63441H56.7817ZM47.871 0.488861H61.9667C70.8833 0.488861 75.2616 5.45719 75.2616 14.5822V43.4178C75.2616 52.5402 70.8833 57.5128 61.9667 57.5128H47.871V0.488861Z" fill="#EC0003"/>
<path fill-rule="evenodd" clip-rule="evenodd" d="M80.9278 0.488861H89.8436V57.5128H80.9278V0.488861Z" fill="#EC0003"/>
<path fill-rule="evenodd" clip-rule="evenodd" d="M105.238 24.518H117.477V32.6635H105.238V49.3639H120.637V57.5128H96.3208V0.488861H120.637V8.63441H105.238V24.518Z" fill="#EC0003"/>
<path fill-rule="evenodd" clip-rule="evenodd" d="M150.86 0.488861V8.47174L133.921 49.3639H150.86V57.5128H124.763V49.5291L141.702 8.63441H125.573V0.488861H150.86Z" fill="#EC0003"/>
<path fill-rule="evenodd" clip-rule="evenodd" d="M165.928 57.5128V3.91094H154.336V0.488861H181.162V3.91094H169.656V57.5128H165.928Z" fill="#EC0003"/>
<path fill-rule="evenodd" clip-rule="evenodd" d="M205.226 26.881V30.3031H189.747V54.0899H208.389V57.5128H186.021V0.488861H208.389V3.91094H189.747V26.881H205.226Z" fill="#EC0003"/>
<path fill-rule="evenodd" clip-rule="evenodd" d="M238.694 14.4161V19.143H235.127V14.1738C235.127 8.06337 232.774 3.41954 226.537 3.41954C220.293 3.41954 217.947 8.06422 217.947 14.1738V43.8262C217.947 49.9341 220.293 54.4949 226.537 54.4949C232.774 54.4949 235.127 49.9341 235.127 43.8262V37.0651H238.694V43.5805C238.694 51.8099 235.127 58 226.455 58C217.78 58 214.219 51.8099 214.219 43.5805L214.22 14.4161C214.22 6.19093 217.78 0 226.455 0C235.127 0 238.694 6.19093 238.694 14.4161Z" fill="#EC0003"/>
<path fill-rule="evenodd" clip-rule="evenodd" d="M248.491 30.7089V57.5128H244.766V0.488861H248.491V27.2894H266.162V0.488861H269.973V57.5128H266.162V30.7089H248.491Z" fill="#EC0003"/>
</g>
<defs>
<clipPath id="clip0_52_80">
<rect width="270" height="58" fill="white"/>
</clipPath>
</defs>
</svg>
