<svg width="29" height="39" viewBox="0 0 29 39" fill="none" xmlns="http://www.w3.org/2000/svg">
<path d="M28.9762 14.2985C29.0332 18.632 27.2862 22.3998 25.0537 25.9862C22.3031 30.405 18.8553 34.3169 15.611 38.3756C14.9816 39.1627 14.119 39.2188 13.5304 38.469C9.30949 33.0975 4.68985 27.9901 1.81172 21.714C0.0295122 17.8288 -0.670352 13.8422 0.783629 9.67685C2.99173 3.35005 9.27423 -0.59385 16.1047 0.0732515C22.6774 0.716338 28.1868 6.06916 28.9708 12.5988C29.0332 13.1591 28.9762 13.7328 28.9762 14.2985ZM6.46392 14.1624C6.4802 18.5813 10.1558 22.2797 14.4744 22.2237C19.0343 22.165 22.6259 18.6 22.5852 14.1704C22.5445 9.93035 18.8689 6.37069 14.5259 6.36536C10.1992 6.36002 6.44765 9.98905 6.46392 14.1624Z" fill="#D02426"/>
</svg>
